<svg version="1.1" id="Layer_1" xmlns="http://www.w3.org/2000/svg" xmlns:xlink="http://www.w3.org/1999/xlink" x="0px" y="0px"
	 width="100%" viewBox="0 0 1366 768" enable-background="new 0 0 1366 768" xml:space="preserve">
<path fill="#050A30" opacity="1.000000" stroke="none" 
	d="
M772.000000,769.000000 
	C514.696716,769.000000 257.893402,769.000000 1.045053,769.000000 
	C1.045053,513.059998 1.045053,257.119965 1.045053,1.000000 
	C228.580048,1.000000 456.160126,1.000000 683.740234,1.000000 
	C911.380249,1.000000 1139.020264,1.000000 1366.830078,1.000000 
	C1366.830078,256.999908 1366.830078,512.999939 1366.830078,769.000000 
	C1168.786377,769.000000 970.643188,769.000000 772.000000,769.000000 
M1148.778564,402.265991 
	C1147.043579,401.274628 1145.308594,400.283264 1143.573608,399.291870 
	C1142.935913,401.250793 1141.714111,403.223053 1141.758545,405.166412 
	C1141.984985,415.084442 1145.302368,424.192688 1150.801758,432.269714 
	C1154.049561,437.039917 1153.167358,440.323364 1149.371582,443.867767 
	C1146.613647,436.407990 1144.184082,429.006653 1141.077393,421.901337 
	C1140.045410,419.541382 1137.274292,417.941833 1135.298340,415.994659 
	C1134.693359,418.755280 1132.984985,421.840485 1133.684204,424.217499 
	C1136.065063,432.310760 1139.038452,440.262756 1142.327881,448.039276 
	C1143.629028,451.115173 1143.708862,453.244476 1141.396118,455.578918 
	C1134.019531,463.024719 1127.149048,471.042908 1119.273438,477.911835 
	C1075.246826,516.311157 1024.036011,532.373657 965.918213,526.219299 
	C945.379700,524.044434 925.836975,518.247131 907.059753,509.724854 
	C905.598145,509.061462 903.911072,508.894745 902.328796,508.497192 
	C902.151489,509.056702 901.974182,509.616180 901.796814,510.175690 
	C902.997131,510.897308 904.139404,511.746460 905.406006,512.322144 
	C951.590332,533.313110 999.103821,536.619873 1047.573853,521.922058 
	C1086.216797,510.204132 1118.185669,488.072571 1143.957031,457.034912 
	C1146.125610,454.423248 1147.812378,454.294983 1151.073242,455.094330 
	C1158.590454,456.936890 1166.327271,458.020477 1174.035889,458.838074 
	C1175.729614,459.017700 1177.676880,456.808960 1179.507324,455.700073 
	C1178.175415,453.863556 1177.177368,450.933899 1175.445923,450.404816 
	C1171.060059,449.064697 1166.364502,448.527039 1161.755127,448.197845 
	C1158.280029,447.949738 1154.746460,448.521332 1150.974243,448.743652 
	C1155.209717,439.991241 1155.209717,439.991364 1163.859985,441.980347 
	C1164.670532,442.166718 1165.479370,442.500671 1166.292847,442.513336 
	C1172.898926,442.616211 1179.513672,442.846161 1186.105957,442.566467 
	C1187.475586,442.508331 1189.588989,440.651642 1189.842163,439.332581 
	C1190.071655,438.136749 1188.523071,435.749146 1187.247559,435.281952 
	C1184.023315,434.101044 1180.536621,433.296814 1177.109497,433.086884 
	C1171.515381,432.744324 1165.885132,432.994354 1160.387085,432.994354 
	C1162.165161,424.861816 1163.515381,424.111877 1171.778564,425.320953 
	C1178.338379,426.280884 1184.988037,426.718079 1191.614624,427.086212 
	C1194.711914,427.258301 1198.899658,427.369263 1199.098022,423.223328 
	C1199.303101,418.942230 1194.903809,418.233063 1191.775513,418.136017 
	C1184.004272,417.894897 1176.212646,418.312592 1167.945312,417.981598 
	C1167.770386,417.835114 1167.595581,417.688629 1167.540894,416.826019 
	C1170.942749,408.699921 1170.949341,408.658142 1179.697021,410.045380 
	C1184.298828,410.775146 1188.846069,411.928589 1193.468018,412.425323 
	C1196.892944,412.793396 1200.466919,412.793701 1203.837036,412.190186 
	C1205.363647,411.916840 1207.259277,409.959229 1207.648804,408.425659 
	C1207.899780,407.437286 1205.966064,405.127045 1204.578979,404.639191 
	C1201.012207,403.384766 1197.235962,402.322510 1193.485962,402.082764 
	C1187.176025,401.679352 1180.821777,401.972229 1174.412231,401.972229 
	C1174.763306,401.297638 1175.462402,400.334229 1175.790405,399.257751 
	C1177.200073,394.632690 1179.990356,393.750336 1184.500610,395.118713 
	C1189.578247,396.659149 1194.834595,397.897156 1200.098511,398.443451 
	C1204.123901,398.861206 1208.337524,398.292786 1212.349609,397.537354 
	C1213.672729,397.288208 1215.239990,395.198242 1215.513794,393.729584 
	C1215.669678,392.893555 1213.570679,390.897491 1212.257935,390.652679 
	C1205.937988,389.474243 1199.562988,388.428406 1193.161011,387.916840 
	C1189.550049,387.628296 1185.848999,388.464142 1181.905518,388.818970 
	C1185.269775,380.632874 1185.332031,380.602173 1193.055786,382.771271 
	C1194.176636,383.086029 1195.286377,383.604187 1196.422974,383.673767 
	C1204.643799,384.176971 1212.867920,384.743988 1221.097168,384.861511 
	C1222.321289,384.878998 1224.435547,382.735931 1224.576172,381.424957 
	C1224.714600,380.134857 1223.153564,377.872986 1221.832642,377.372772 
	C1218.627319,376.159027 1215.133789,375.124939 1211.746338,375.093231 
	C1204.322876,375.023773 1196.893188,375.620911 1189.241943,375.955658 
	C1190.534302,371.756409 1192.190430,369.416809 1197.645142,370.417480 
	C1205.115601,371.787994 1212.848755,372.146484 1220.460327,372.067902 
	C1222.694092,372.044861 1224.897095,369.066986 1227.114258,367.443329 
	C1225.169922,365.974884 1223.279785,363.339142 1221.271362,363.245636 
	C1213.686890,362.892456 1206.064087,363.365112 1198.034424,363.055450 
	C1197.885498,362.905853 1197.736572,362.756256 1197.952515,361.938507 
	C1199.930664,361.258514 1201.861694,360.328278 1203.895752,359.945038 
	C1210.255615,358.746765 1216.763794,358.154938 1222.976685,356.457397 
	C1225.036011,355.894714 1226.374512,352.693542 1228.042725,350.698730 
	C1225.909180,349.494720 1223.772095,347.286713 1221.642822,347.294342 
	C1217.121948,347.310516 1212.605225,348.480042 1207.413452,349.280579 
	C1208.618286,347.374939 1209.648804,345.761658 1210.662964,344.138031 
	C1213.917114,338.927185 1217.434570,333.855255 1220.304810,328.440521 
	C1221.789917,325.638947 1222.068604,321.989685 1218.786011,319.924500 
	C1215.269043,317.711945 1211.992676,319.684326 1210.135742,322.481598 
	C1207.598511,326.303772 1205.683960,330.611023 1204.000610,334.905640 
	C1202.652710,338.344482 1202.047485,342.074432 1201.112671,345.675232 
	C1200.230957,344.917480 1200.129395,344.180817 1199.939941,343.467499 
	C1198.622437,338.507019 1197.509155,333.473236 1195.812012,328.645081 
	C1195.344971,327.316254 1192.994751,325.702820 1191.732300,325.873566 
	C1190.535767,326.035492 1189.195435,328.230408 1188.719360,329.777740 
	C1188.210938,331.429779 1188.601807,333.371796 1188.671387,335.184540 
	C1188.733643,336.808563 1188.892700,338.428833 1189.009033,340.050781 
	C1187.232422,339.159515 1186.684570,337.882141 1185.725830,337.125641 
	C1184.528809,336.181122 1182.782837,334.884277 1181.663940,335.186066 
	C1180.562744,335.483124 1179.524902,337.501190 1179.230835,338.923676 
	C1178.873291,340.653412 1179.184082,342.571045 1179.456177,344.369507 
	C1179.850464,346.976044 1180.469238,349.548615 1180.992310,352.135681 
	C1178.435059,350.604675 1177.080322,348.548950 1175.365723,346.858337 
	C1174.446289,345.951721 1172.907715,345.673157 1171.648560,345.111267 
	C1171.121094,346.407715 1170.124878,347.719360 1170.166260,348.997345 
	C1170.246216,351.459747 1170.821777,353.923492 1171.364990,356.347870 
	C1171.795898,358.271332 1172.485229,360.136871 1173.059814,362.028137 
	C1170.441162,360.607849 1169.017334,358.597473 1167.249512,356.958008 
	C1166.412109,356.181305 1164.685913,355.531860 1163.785889,355.889709 
	C1162.903809,356.240387 1162.020996,357.974670 1162.083862,359.046204 
	C1162.246948,361.825806 1162.673584,364.650940 1163.464844,367.318604 
	C1164.699219,371.480591 1166.321411,375.527557 1167.779297,379.623260 
	C1167.373901,379.790070 1166.968384,379.956909 1166.562866,380.123749 
	C1165.629028,378.434998 1164.963867,376.499207 1163.694580,375.118774 
	C1162.031006,373.309235 1159.890503,371.937927 1157.955200,370.378143 
	C1157.327393,372.788239 1156.572388,375.175781 1156.139038,377.620361 
	C1155.981689,378.508148 1156.494995,379.571228 1156.866699,380.487610 
	C1159.732910,387.555237 1162.134277,394.875336 1165.698975,401.574921 
	C1168.395508,406.642883 1167.937866,410.482574 1164.247192,414.869812 
	C1163.429810,411.624023 1163.042114,408.603027 1161.909302,405.893555 
	C1159.556030,400.264465 1156.981079,394.707001 1154.084473,389.342865 
	C1153.458008,388.182770 1151.090698,387.962646 1149.525269,387.309601 
	C1149.149048,388.823669 1148.317261,390.391815 1148.489136,391.840881 
	C1148.879395,395.129547 1149.763428,398.359619 1149.837158,402.155365 
	C1149.645996,402.348724 1149.454834,402.542053 1148.778564,402.265991 
M842.731201,361.738068 
	C849.330078,396.076996 865.283386,425.220062 891.723022,448.213562 
	C929.612976,481.164825 973.820251,493.042328 1022.753723,483.397369 
	C1067.296875,474.617798 1101.838745,449.897003 1124.481079,410.241241 
	C1149.239258,366.879883 1152.468262,321.149445 1132.929688,275.357239 
	C1110.864868,223.644348 1071.091675,192.284088 1015.210510,183.770767 
	C964.886047,176.104004 920.444397,190.557877 884.693848,226.705566 
	C848.034424,263.772186 834.401184,309.187347 842.731201,361.738068 
M363.001923,247.363129 
	C360.651764,240.618896 358.054504,233.946930 356.052124,227.100967 
	C354.998108,223.497345 353.166626,222.602173 349.682587,222.749207 
	C343.360626,223.016037 337.007477,223.056229 330.690796,222.732773 
	C327.238556,222.556000 325.917999,223.742676 324.808289,226.959000 
	C303.626984,288.347168 282.299713,349.684967 261.007263,411.034760 
	C257.004089,422.569122 253.020554,434.110291 248.938690,445.906311 
	C256.822632,445.906311 264.143127,445.906311 271.651276,445.906311 
	C272.115234,444.690826 272.618774,443.490692 273.035828,442.261230 
	C279.331726,423.701599 285.779510,405.190552 291.777710,386.535034 
	C293.116791,382.370300 295.074493,381.401489 299.132721,381.427246 
	C326.131195,381.598511 353.133179,381.681824 380.129181,381.372467 
	C385.368622,381.312439 387.524597,382.820984 389.113892,387.822784 
	C395.287628,407.253326 402.004120,426.511414 408.528503,445.863007 
	C416.488281,445.863007 424.126099,445.863007 432.281647,445.863007 
	C409.187866,379.764191 386.191864,313.945282 363.001923,247.363129 
M707.833496,388.300110 
	C702.760681,407.110504 706.239441,424.104767 721.163818,436.880219 
	C739.982544,452.989349 760.455322,450.608246 781.129028,439.054596 
	C781.335938,441.745300 781.531311,444.285553 781.719788,446.736542 
	C786.329651,446.736542 790.589050,446.736542 794.711426,446.736542 
	C794.711426,417.129425 794.711426,387.798157 794.711426,358.477417 
	C790.207275,358.477417 786.108521,358.477417 781.751892,358.477417 
	C781.536499,360.909454 781.339233,363.137115 781.135010,365.443512 
	C744.584473,349.902618 719.054199,357.678833 707.833496,388.300110 
M524.246826,428.325500 
	C517.629761,422.778778 513.393616,415.898376 512.151245,406.847870 
	C536.849365,406.847870 561.291138,406.847870 585.931458,406.847870 
	C585.931458,402.875275 586.331726,399.195465 585.862976,395.629913 
	C583.703491,379.205933 576.417236,366.168640 560.272217,359.835114 
	C531.102112,348.391968 501.554779,367.150665 498.440155,398.887421 
	C496.494202,418.715759 508.311829,438.071289 526.576843,444.971130 
	C546.342346,452.437836 571.321289,445.905701 582.701782,430.053223 
	C579.763855,427.762634 576.816406,425.464691 573.929260,423.213745 
	C558.593811,438.183990 540.943481,440.062103 524.246826,428.325500 
M687.011902,391.668091 
	C685.729553,373.955719 677.761169,362.502655 663.070618,358.630798 
	C648.637085,354.826691 634.701172,356.160858 622.021362,364.863586 
	C621.435486,365.265747 620.732056,365.496704 619.882446,365.903595 
	C619.712830,363.222229 619.568970,360.949219 619.414551,358.509003 
	C614.830872,358.509003 610.594055,358.509003 606.288452,358.509003 
	C606.288452,388.131073 606.288452,417.490540 606.288452,446.689758 
	C610.876221,446.689758 615.121643,446.689758 619.681030,446.689758 
	C619.681030,444.742065 619.681030,443.099579 619.681030,441.457092 
	C619.681030,421.970673 619.737549,402.483948 619.620239,382.998230 
	C619.602600,380.060211 620.390259,378.162140 622.852295,376.376343 
	C628.990601,371.924042 635.830872,369.635162 643.248840,369.085938 
	C661.579956,367.728668 672.307129,376.613495 673.186646,394.930847 
	C673.928650,410.384644 673.471252,425.896088 673.542297,441.382019 
	C673.550537,443.173981 673.543396,444.966003 673.543396,446.750061 
	C678.335999,446.750061 682.602356,446.750061 687.043396,446.750061 
	C687.043396,428.537720 687.043396,410.582916 687.011902,391.668091 
M456.985382,390.500122 
	C456.985382,383.722137 456.985382,376.944183 456.985382,369.694550 
	C467.207977,369.694550 476.942749,369.694550 486.621307,369.694550 
	C486.621307,365.649963 486.621307,362.090118 486.621307,358.220795 
	C476.674683,358.220795 467.073212,358.220795 456.934570,358.220795 
	C456.934570,346.527222 456.934570,335.147003 456.934570,323.814362 
	C452.010498,323.814362 447.638916,323.814362 442.884583,323.814362 
	C442.884583,335.486572 442.884583,346.745972 442.884583,358.304138 
	C438.042206,358.304138 433.595764,358.304138 428.994568,358.304138 
	C428.994568,362.296906 428.994568,365.974335 428.994568,369.992554 
	C433.857208,369.992554 438.293365,369.992554 443.079559,369.992554 
	C443.079559,371.965851 443.078857,373.595886 443.079681,375.225922 
	C443.087524,390.880096 442.944977,406.536224 443.148895,422.187866 
	C443.328033,435.939911 451.212463,445.677124 463.895294,447.561951 
	C468.425995,448.235291 473.241394,447.988373 477.797180,447.301453 
	C489.260742,445.572968 486.376648,446.282593 486.659485,436.649445 
	C486.672485,436.205811 486.349762,435.752380 486.223602,435.411926 
	C481.798920,435.628021 477.492737,436.047913 473.191223,436.004944 
	C464.103607,435.914185 458.885223,431.963226 458.000488,422.889557 
	C456.986694,412.492249 457.267181,401.968781 456.985382,390.500122 
M683.682983,272.978546 
	C685.849487,272.977966 688.056030,273.242035 690.174133,272.921570 
	C694.527344,272.262878 696.692749,274.070923 698.330078,278.094208 
	C701.086426,284.867218 704.751831,291.267059 707.590149,298.011078 
	C709.348083,302.187866 711.823547,302.840668 715.968750,301.227905 
	C711.403381,291.730438 706.958923,282.484436 702.613586,273.444672 
	C703.140076,272.782898 703.291626,272.386383 703.546936,272.301178 
	C714.107971,268.778137 716.246765,259.524567 714.732788,251.559280 
	C713.137939,243.168472 706.514343,238.665466 696.020508,238.546188 
	C690.021667,238.477997 684.011597,238.738800 678.025391,238.454895 
	C674.171814,238.272141 673.240540,239.748383 673.271912,243.377670 
	C673.427612,261.375092 673.334229,279.374603 673.360413,297.373352 
	C673.362549,298.808777 673.606262,300.243866 673.738708,301.689819 
	C675.936401,301.689819 677.682922,301.689819 679.978149,301.689819 
	C679.978149,293.248260 679.966614,285.122101 679.986572,276.996002 
	C679.991272,275.070953 679.457886,272.704224 683.682983,272.978546 
M580.277039,277.156586 
	C583.557434,284.070587 587.032471,290.901306 590.041077,297.931580 
	C591.696228,301.799408 594.039978,302.873871 598.430481,301.342529 
	C593.873962,291.797882 589.353760,282.329376 584.803894,272.798737 
	C586.656006,271.996338 587.903503,271.538818 589.075195,270.934296 
	C595.027710,267.863159 598.389526,261.290680 597.674255,254.214478 
	C596.935364,246.905350 592.697388,240.302429 586.081360,239.658615 
	C576.269470,238.703812 566.295837,239.411484 556.322815,239.411484 
	C556.322815,260.086365 556.322815,280.827362 556.322815,301.710693 
	C558.406860,301.710693 560.157593,301.710693 562.652710,301.710693 
	C562.652710,292.065979 562.652710,282.687256 562.652710,272.962921 
	C567.201477,272.962921 571.059753,272.595978 574.793396,273.118927 
	C576.639038,273.377411 578.254944,275.276520 580.277039,277.156586 
M754.580811,301.314423 
	C758.646667,303.171875 760.886963,302.015350 762.177795,297.570557 
	C764.455627,289.727142 764.664429,289.787750 772.910522,289.787598 
	C776.736633,289.787537 780.563416,289.743713 784.388794,289.796234 
	C793.907288,289.926880 791.779663,288.558319 794.494446,297.109039 
	C795.895142,301.520844 797.874695,303.166168 802.308655,301.426819 
	C802.275452,300.792755 802.355225,300.271729 802.209290,299.824341 
	C795.875183,280.399231 789.593018,260.956116 783.016174,241.613297 
	C782.552368,240.249146 780.005249,239.229996 778.237732,238.757233 
	C775.553589,238.039261 774.097961,239.587372 773.251953,242.235931 
	C767.034851,261.699341 760.702148,281.125824 754.580811,301.314423 
M656.820007,296.646240 
	C650.951843,278.823181 645.036194,261.015472 639.265259,243.161011 
	C638.367432,240.383392 637.526794,238.521683 633.990417,238.537430 
	C630.590637,238.552551 629.497375,240.073334 628.571533,242.974442 
	C622.765930,261.165466 616.775452,279.297485 610.875488,297.458557 
	C610.450439,298.766846 610.258362,300.150818 609.972595,301.433838 
	C614.488770,302.934723 616.904602,301.706024 617.666992,297.472137 
	C617.900269,296.176666 618.614868,294.966370 618.835815,293.670441 
	C619.345337,290.682220 620.916077,289.589233 623.992493,289.723053 
	C629.303833,289.954102 634.679199,290.227020 639.941650,289.669830 
	C645.955566,289.033112 649.269653,290.924896 650.102051,297.100525 
	C650.717041,301.663025 653.364746,303.221008 658.034668,301.292908 
	C657.681396,299.938568 657.353943,298.683258 656.820007,296.646240 
M525.151001,287.747162 
	C530.386658,271.686829 535.622253,255.626495 540.868286,239.534286 
	C536.101746,237.811890 534.079895,239.183578 532.783325,243.545181 
	C528.002747,259.627533 522.831726,275.593842 517.530334,292.486969 
	C516.612976,289.920471 515.952515,288.249939 515.414978,286.540741 
	C510.924469,272.263672 506.308411,258.023224 502.068756,243.671738 
	C500.730743,239.142517 498.614746,237.670502 493.908875,239.585052 
	C500.334991,259.611298 506.678528,279.557617 513.254211,299.427124 
	C513.644226,300.605560 515.899841,301.831268 517.284546,301.828003 
	C518.656128,301.824799 520.710083,300.601624 521.263184,299.372742 
	C522.824097,295.904724 523.768372,292.159119 525.151001,287.747162 
M420.477020,238.646393 
	C419.354401,239.663391 417.263153,240.670547 417.252686,241.698853 
	C417.058105,260.818726 417.066956,279.941467 417.238007,299.061798 
	C417.246887,300.058472 419.065674,301.879974 420.067444,301.898041 
	C431.370605,302.101898 442.680115,302.101318 453.983337,301.901123 
	C454.979370,301.883484 455.943665,300.073822 456.922729,299.096527 
	C455.900757,298.138367 454.903198,296.381500 453.852905,296.349426 
	C446.045074,296.110901 438.226776,296.214478 430.411743,296.211151 
	C428.335480,296.210266 426.259247,296.211029 423.827484,296.211029 
	C423.827484,293.547028 423.827454,291.738892 423.827454,289.930756 
	C423.827362,274.466980 423.856628,259.003052 423.790131,243.539551 
	C423.781860,241.615341 424.815613,238.882568 420.477020,238.646393 
M1103.332031,173.100403 
	C1113.848877,182.523499 1125.274658,191.134109 1134.628540,201.596893 
	C1144.088623,212.178421 1152.548828,224.002472 1159.507080,236.373413 
	C1166.377319,248.587952 1171.778198,261.861420 1176.056885,275.235535 
	C1180.289185,288.464661 1182.313110,302.400269 1185.305786,316.025940 
	C1185.889160,315.850281 1186.472412,315.674652 1187.055786,315.498993 
	C1184.541138,281.408569 1173.445435,250.152634 1154.418335,221.646484 
	C1139.396118,199.140274 1120.717285,180.315292 1097.945190,165.812332 
	C1097.410645,166.399353 1096.876099,166.986374 1096.341553,167.573395 
	C1098.471191,169.284546 1100.600830,170.995697 1103.332031,173.100403 
M472.096039,252.514679 
	C472.096313,267.514160 472.104980,282.513641 472.088226,297.513123 
	C472.085541,299.923828 471.817963,302.136597 475.503937,302.120361 
	C479.259979,302.103821 478.831146,299.756012 478.831390,297.423340 
	C478.833130,279.257294 478.840942,261.091248 478.813812,242.925232 
	C478.811920,241.658127 478.545074,240.391434 478.353668,238.703339 
	C476.149292,238.806030 474.274384,238.893387 472.096100,238.994858 
	C472.096100,243.548523 472.096100,247.535248 472.096039,252.514679 
M732.309448,290.470978 
	C732.309509,292.637177 732.292786,294.803497 732.312927,296.969513 
	C732.364197,302.483887 732.621399,302.661530 738.654907,301.294403 
	C738.654907,280.621216 738.654907,259.906769 738.654907,239.252823 
	C732.397339,238.172150 732.320496,238.211777 732.314575,243.990936 
	C732.299072,259.154266 732.309692,274.317627 732.309448,290.470978 
z"/>
<path fill="#5CB6F8" opacity="1.000000" stroke="none" 
	d="
M842.649292,361.313782 
	C834.401184,309.187347 848.034424,263.772186 884.693848,226.705566 
	C920.444397,190.557877 964.886047,176.104004 1015.210510,183.770767 
	C1071.091675,192.284088 1110.864868,223.644348 1132.929688,275.357239 
	C1152.468262,321.149445 1149.239258,366.879883 1124.481079,410.241241 
	C1101.838745,449.897003 1067.296875,474.617798 1022.753723,483.397369 
	C973.820251,493.042328 929.612976,481.164825 891.723022,448.213562 
	C865.283386,425.220062 849.330078,396.076996 842.649292,361.313782 
M1091.294434,273.855255 
	C1090.294556,273.854645 1089.294556,273.854523 1088.294678,273.853302 
	C1081.710327,273.845398 1081.709595,273.845306 1081.701538,267.467773 
	C1081.698853,265.301239 1081.575684,263.126007 1081.725586,260.969910 
	C1082.073608,255.966263 1079.631592,253.734314 1074.827271,253.123718 
	C1046.516357,249.525589 1020.166809,254.972794 995.969971,270.183655 
	C993.306335,271.858032 991.511230,271.796112 988.876343,270.127625 
	C965.670410,255.432709 940.401733,249.568939 913.062988,252.859207 
	C903.650330,253.992035 903.300293,254.334488 903.298767,264.022858 
	C903.297241,273.713654 903.297302,273.713654 893.650452,273.854218 
	C884.434753,273.988495 878.066650,279.928253 878.040833,289.087616 
	C877.932617,327.418274 877.936340,365.749542 878.040100,404.080231 
	C878.064697,413.165527 884.135864,419.111206 893.134155,419.117371 
	C959.296753,419.162689 1025.459351,419.162079 1091.621948,419.114685 
	C1100.578125,419.108276 1106.809570,413.090088 1106.836182,404.108246 
	C1106.949463,365.777618 1106.948608,327.446228 1106.831909,289.115631 
	C1106.805298,280.343353 1101.091797,274.704895 1091.294434,273.855255 
z"/>
<path fill="#F1F3F9" opacity="1.000000" stroke="none" 
	d="
M363.098877,247.744751 
	C386.191864,313.945282 409.187866,379.764191 432.281647,445.863007 
	C424.126099,445.863007 416.488281,445.863007 408.528503,445.863007 
	C402.004120,426.511414 395.287628,407.253326 389.113892,387.822784 
	C387.524597,382.820984 385.368622,381.312439 380.129181,381.372467 
	C353.133179,381.681824 326.131195,381.598511 299.132721,381.427246 
	C295.074493,381.401489 293.116791,382.370300 291.777710,386.535034 
	C285.779510,405.190552 279.331726,423.701599 273.035828,442.261230 
	C272.618774,443.490692 272.115234,444.690826 271.651276,445.906311 
	C264.143127,445.906311 256.822632,445.906311 248.938690,445.906311 
	C253.020554,434.110291 257.004089,422.569122 261.007263,411.034760 
	C282.299713,349.684967 303.626984,288.347168 324.808289,226.959000 
	C325.917999,223.742676 327.238556,222.556000 330.690796,222.732773 
	C337.007477,223.056229 343.360626,223.016037 349.682587,222.749207 
	C353.166626,222.602173 354.998108,223.497345 356.052124,227.100967 
	C358.054504,233.946930 360.651764,240.618896 363.098877,247.744751 
M327.662659,280.210205 
	C318.565430,307.200470 309.468201,334.190704 300.241638,361.564728 
	C326.972961,361.564728 352.967499,361.564728 379.642914,361.564728 
	C366.425659,322.424774 353.359253,283.731476 339.858948,243.753387 
	C335.559387,256.604553 331.736450,268.031128 327.662659,280.210205 
z"/>
<path fill="#2139F0" opacity="1.000000" stroke="none" 
	d="
M1198.455566,363.528656 
	C1206.064087,363.365112 1213.686890,362.892456 1221.271362,363.245636 
	C1223.279785,363.339142 1225.169922,365.974884 1227.114258,367.443359 
	C1224.897095,369.066986 1222.694092,372.044861 1220.460327,372.067902 
	C1212.848755,372.146484 1205.115601,371.787994 1197.645142,370.417480 
	C1192.190430,369.416809 1190.534302,371.756409 1189.241943,375.955658 
	C1196.893188,375.620911 1204.322876,375.023773 1211.746338,375.093231 
	C1215.133789,375.124939 1218.627319,376.159027 1221.832642,377.372772 
	C1223.153564,377.872986 1224.714600,380.134857 1224.576172,381.424957 
	C1224.435547,382.735931 1222.321289,384.878998 1221.097168,384.861511 
	C1212.867920,384.743988 1204.643799,384.176971 1196.422974,383.673767 
	C1195.286377,383.604187 1194.176636,383.086029 1193.055786,382.771271 
	C1185.332031,380.602173 1185.269775,380.632874 1181.905518,388.818970 
	C1185.848999,388.464142 1189.550049,387.628296 1193.161011,387.916840 
	C1199.562988,388.428406 1205.937988,389.474243 1212.257935,390.652679 
	C1213.570679,390.897491 1215.669678,392.893555 1215.513794,393.729584 
	C1215.239990,395.198242 1213.672729,397.288208 1212.349609,397.537354 
	C1208.337524,398.292786 1204.123901,398.861206 1200.098511,398.443451 
	C1194.834595,397.897156 1189.578247,396.659149 1184.500610,395.118713 
	C1179.990356,393.750336 1177.200073,394.632690 1175.790405,399.257751 
	C1175.462402,400.334229 1174.763306,401.297638 1174.412231,401.972229 
	C1180.821777,401.972229 1187.176025,401.679352 1193.485962,402.082764 
	C1197.235962,402.322510 1201.012207,403.384766 1204.578979,404.639191 
	C1205.966064,405.127045 1207.899780,407.437286 1207.648804,408.425659 
	C1207.259277,409.959229 1205.363647,411.916840 1203.837036,412.190186 
	C1200.466919,412.793701 1196.892944,412.793396 1193.468018,412.425323 
	C1188.846069,411.928589 1184.298828,410.775146 1179.697021,410.045380 
	C1170.949341,408.658142 1170.942749,408.699921 1167.377441,417.390228 
	C1167.619141,418.124847 1168.024170,418.295258 1168.429199,418.465698 
	C1176.212646,418.312592 1184.004272,417.894897 1191.775513,418.136017 
	C1194.903809,418.233063 1199.303101,418.942230 1199.098022,423.223328 
	C1198.899658,427.369263 1194.711914,427.258301 1191.614624,427.086212 
	C1184.988037,426.718079 1178.338379,426.280884 1171.778564,425.320953 
	C1163.515381,424.111877 1162.165161,424.861816 1160.387085,432.994354 
	C1165.885132,432.994354 1171.515381,432.744324 1177.109497,433.086884 
	C1180.536621,433.296814 1184.023315,434.101044 1187.247559,435.281952 
	C1188.523071,435.749146 1190.071655,438.136749 1189.842163,439.332581 
	C1189.588989,440.651642 1187.475586,442.508331 1186.105957,442.566467 
	C1179.513672,442.846161 1172.898926,442.616211 1166.292847,442.513336 
	C1165.479370,442.500671 1164.670532,442.166718 1163.859985,441.980347 
	C1155.209717,439.991364 1155.209717,439.991241 1150.974243,448.743652 
	C1154.746460,448.521332 1158.280029,447.949738 1161.755127,448.197845 
	C1166.364502,448.527039 1171.060059,449.064697 1175.445923,450.404816 
	C1177.177368,450.933899 1178.175415,453.863556 1179.507324,455.700073 
	C1177.676880,456.808960 1175.729614,459.017700 1174.035889,458.838074 
	C1166.327271,458.020477 1158.590454,456.936890 1151.073242,455.094330 
	C1147.812378,454.294983 1146.125610,454.423248 1143.957031,457.034912 
	C1118.185669,488.072571 1086.216797,510.204132 1047.573853,521.922058 
	C999.103821,536.619873 951.590332,533.313110 905.406006,512.322144 
	C904.139404,511.746460 902.997131,510.897308 901.796814,510.175690 
	C901.974182,509.616180 902.151489,509.056702 902.328796,508.497192 
	C903.911072,508.894745 905.598145,509.061462 907.059753,509.724854 
	C925.836975,518.247131 945.379700,524.044434 965.918213,526.219299 
	C1024.036011,532.373657 1075.246826,516.311157 1119.273438,477.911835 
	C1127.149048,471.042908 1134.019531,463.024719 1141.396118,455.578918 
	C1143.708862,453.244476 1143.629028,451.115173 1142.327881,448.039276 
	C1139.038452,440.262756 1136.065063,432.310760 1133.684204,424.217499 
	C1132.984985,421.840485 1134.693359,418.755280 1135.298340,415.994659 
	C1137.274292,417.941833 1140.045410,419.541382 1141.077393,421.901337 
	C1144.184082,429.006653 1146.613647,436.407990 1149.371582,443.867767 
	C1153.167358,440.323364 1154.049561,437.039917 1150.801758,432.269714 
	C1145.302368,424.192688 1141.984985,415.084442 1141.758545,405.166412 
	C1141.714111,403.223053 1142.935913,401.250793 1143.573608,399.291870 
	C1145.308594,400.283264 1147.043579,401.274628 1149.096191,402.813599 
	C1149.838135,403.833618 1150.262695,404.306000 1150.687134,404.778381 
	C1150.873169,404.637207 1151.059204,404.496002 1151.245239,404.354828 
	C1150.979004,403.441071 1150.712891,402.527283 1150.446655,401.613525 
	C1149.763428,398.359619 1148.879395,395.129547 1148.489136,391.840881 
	C1148.317261,390.391815 1149.149048,388.823669 1149.525269,387.309570 
	C1151.090698,387.962646 1153.458008,388.182770 1154.084473,389.342865 
	C1156.981079,394.707001 1159.556030,400.264465 1161.909302,405.893555 
	C1163.042114,408.603027 1163.429810,411.624023 1164.247192,414.869812 
	C1167.937866,410.482574 1168.395508,406.642883 1165.698975,401.574921 
	C1162.134277,394.875336 1159.732910,387.555237 1156.866699,380.487610 
	C1156.494995,379.571228 1155.981689,378.508148 1156.139038,377.620361 
	C1156.572388,375.175781 1157.327393,372.788239 1157.955200,370.378143 
	C1159.890503,371.937927 1162.031006,373.309235 1163.694580,375.118774 
	C1164.963867,376.499207 1165.629028,378.434998 1166.562866,380.123749 
	C1166.968384,379.956909 1167.373901,379.790070 1167.779297,379.623260 
	C1166.321411,375.527557 1164.699219,371.480591 1163.464844,367.318604 
	C1162.673584,364.650940 1162.246948,361.825806 1162.083862,359.046204 
	C1162.020996,357.974670 1162.903809,356.240387 1163.785889,355.889709 
	C1164.685913,355.531860 1166.412109,356.181305 1167.249512,356.958008 
	C1169.017334,358.597473 1170.441162,360.607849 1173.059814,362.028137 
	C1172.485229,360.136871 1171.795898,358.271332 1171.364990,356.347870 
	C1170.821777,353.923492 1170.246216,351.459747 1170.166260,348.997345 
	C1170.124878,347.719360 1171.121094,346.407715 1171.648438,345.111267 
	C1172.907715,345.673157 1174.446289,345.951721 1175.365723,346.858337 
	C1177.080322,348.548950 1178.435059,350.604675 1180.992310,352.135681 
	C1180.469238,349.548615 1179.850464,346.976044 1179.456177,344.369507 
	C1179.184082,342.571045 1178.873291,340.653412 1179.230835,338.923676 
	C1179.524902,337.501190 1180.562744,335.483124 1181.663940,335.186066 
	C1182.782837,334.884277 1184.528809,336.181122 1185.725830,337.125641 
	C1186.684570,337.882141 1187.232422,339.159515 1189.009033,340.050781 
	C1188.892700,338.428833 1188.733643,336.808563 1188.671387,335.184540 
	C1188.601807,333.371796 1188.210938,331.429779 1188.719360,329.777740 
	C1189.195435,328.230408 1190.535767,326.035492 1191.732300,325.873566 
	C1192.994751,325.702820 1195.344971,327.316254 1195.812012,328.645081 
	C1197.509155,333.473236 1198.622437,338.507019 1199.939941,343.467499 
	C1200.129395,344.180817 1200.230957,344.917480 1201.112671,345.675232 
	C1202.047485,342.074432 1202.652710,338.344482 1204.000610,334.905640 
	C1205.683960,330.611023 1207.598511,326.303772 1210.135742,322.481598 
	C1211.992676,319.684326 1215.269043,317.711945 1218.786011,319.924500 
	C1222.068604,321.989685 1221.789917,325.638947 1220.304810,328.440521 
	C1217.434570,333.855255 1213.917114,338.927185 1210.662964,344.138031 
	C1209.648804,345.761658 1208.618286,347.374939 1207.413452,349.280579 
	C1212.605225,348.480042 1217.121948,347.310516 1221.642822,347.294342 
	C1223.772095,347.286713 1225.909180,349.494720 1228.042725,350.698730 
	C1226.374512,352.693542 1225.036011,355.894714 1222.976685,356.457397 
	C1216.763794,358.154938 1210.255615,358.746765 1203.895752,359.945038 
	C1201.861694,360.328278 1199.930664,361.258514 1197.627930,362.459534 
	C1197.687378,363.163239 1198.071411,363.345947 1198.455566,363.528656 
M1153.718384,413.873199 
	C1153.924927,414.393738 1154.131470,414.914276 1154.407471,416.210815 
	C1155.523193,420.138580 1156.639038,424.066315 1157.754761,427.994080 
	C1158.340210,427.912842 1158.925659,427.831604 1159.511108,427.750366 
	C1159.511108,425.804321 1160.007812,423.682098 1159.394531,421.953583 
	C1158.479004,419.372589 1156.781616,417.069000 1155.256958,414.099121 
	C1154.998169,413.593658 1154.739258,413.088165 1154.306396,411.969208 
	C1154.001831,411.466156 1153.697144,410.963074 1153.392578,410.460022 
	C1153.194824,410.572876 1152.997070,410.685730 1152.799316,410.798584 
	C1153.068115,411.639709 1153.336914,412.480804 1153.718384,413.873199 
M1189.581421,346.065308 
	C1189.836182,346.849945 1190.090820,347.634552 1190.403564,349.209808 
	C1191.480713,353.193817 1192.557861,357.177826 1193.635010,361.161835 
	C1194.193115,361.128174 1194.751343,361.094482 1195.309570,361.060791 
	C1195.384766,359.367950 1195.936646,357.515411 1195.434082,356.016113 
	C1194.451050,353.082336 1192.879883,350.345642 1191.380493,346.928772 
	C1191.105957,346.141785 1190.831421,345.354828 1190.487183,343.801392 
	C1190.081787,342.912720 1189.676392,342.024048 1189.270996,341.135376 
	C1189.005005,341.229462 1188.739136,341.323517 1188.473267,341.417603 
	C1188.796753,342.766052 1189.120361,344.114471 1189.581421,346.065308 
M1214.477051,332.889130 
	C1216.271240,329.567444 1219.505249,326.551392 1216.547485,321.348511 
	C1206.841675,327.759888 1206.285767,337.845490 1204.832764,347.566895 
	C1207.906738,342.874695 1210.980835,338.182465 1214.477051,332.889130 
M1147.948242,420.426147 
	C1150.063965,424.812744 1152.179688,429.199310 1154.295410,433.585876 
	C1154.963135,433.325287 1155.630737,433.064697 1156.298462,432.804108 
	C1153.058960,422.894104 1149.819336,412.984100 1146.579834,403.074097 
	C1145.634399,403.329193 1144.688843,403.584259 1143.743408,403.839355 
	C1145.066284,409.120605 1146.389038,414.401886 1147.948242,420.426147 
M1178.208740,440.717133 
	C1181.017212,440.293945 1183.825562,439.870758 1186.634033,439.447601 
	C1186.587891,438.891754 1186.541870,438.335938 1186.495728,437.780090 
	C1177.809082,434.833527 1168.978271,435.538696 1160.114380,437.083801 
	C1160.054443,437.591003 1159.994385,438.098175 1159.934448,438.605347 
	C1165.735229,439.339813 1171.536133,440.074249 1178.208740,440.717133 
M1196.437866,380.643341 
	C1204.607666,382.026855 1212.775024,384.828644 1220.966064,380.884644 
	C1212.161865,376.646454 1203.146484,377.521423 1193.176880,379.328156 
	C1194.584473,379.911713 1195.168457,380.153809 1196.437866,380.643341 
M1167.756714,370.689941 
	C1170.133423,376.008545 1172.510254,381.327179 1174.886963,386.645813 
	C1175.306274,386.451599 1175.725586,386.257416 1176.144897,386.063232 
	C1174.830200,376.405579 1172.072388,367.334656 1165.777954,359.701599 
	C1165.337402,359.853180 1164.896851,360.004761 1164.456299,360.156342 
	C1165.454346,363.427124 1166.452271,366.697937 1167.756714,370.689941 
M1200.915894,367.978424 
	C1208.516602,369.021637 1216.158569,371.774902 1223.647827,367.459747 
	C1215.737915,364.201294 1207.723022,364.671509 1199.658447,366.628174 
	C1199.830200,367.021118 1200.002075,367.414032 1200.915894,367.978424 
M1193.216919,404.912048 
	C1188.393921,404.912048 1183.570923,404.912048 1178.747803,404.912048 
	C1178.743286,405.507355 1178.738770,406.102661 1178.734131,406.697968 
	C1187.166138,408.015656 1195.471924,410.805328 1204.158081,409.158051 
	C1204.264404,408.592682 1204.370605,408.027344 1204.476929,407.462006 
	C1201.028442,406.632385 1197.579834,405.802795 1193.216919,404.912048 
M1194.561279,390.853302 
	C1191.871338,391.045624 1189.181519,391.237946 1186.491577,391.430267 
	C1186.505127,391.864502 1186.518799,392.298737 1186.532349,392.732971 
	C1194.771973,393.911987 1202.781860,397.506073 1212.656738,394.605713 
	C1206.646851,390.977783 1201.131226,390.700958 1194.561279,390.853302 
M1156.129639,451.150269 
	C1155.178345,451.454010 1154.227173,451.757751 1152.163818,452.416565 
	C1160.575439,455.649292 1167.947266,456.666534 1175.638184,454.919128 
	C1170.048096,450.382141 1163.431030,451.216339 1156.129639,451.150269 
M1221.975708,350.118713 
	C1215.330322,349.747131 1209.580566,351.823090 1204.681641,356.426636 
	C1210.719116,356.036682 1216.585205,355.041168 1222.355591,353.648865 
	C1224.066650,353.235992 1227.126709,351.892609 1221.975708,350.118713 
M1181.552979,420.123657 
	C1178.216919,420.421722 1174.880981,420.719818 1171.544922,421.017883 
	C1179.535767,423.391388 1187.467896,425.029846 1195.546753,423.872009 
	C1195.621582,423.154510 1195.696289,422.436981 1195.771118,421.719482 
	C1191.338623,421.187561 1186.906128,420.655670 1181.552979,420.123657 
M1145.688110,447.372314 
	C1145.118408,437.705536 1141.500854,429.099762 1136.715576,420.898376 
	C1137.337036,430.348633 1140.515991,438.956146 1145.688110,447.372314 
M1166.706543,398.552551 
	C1167.286987,398.630493 1167.867310,398.708405 1168.447754,398.786346 
	C1167.480591,390.201569 1164.714600,382.327759 1159.854614,375.281525 
	C1159.291748,375.488190 1158.728882,375.694855 1158.166016,375.901550 
	C1160.901245,383.241364 1163.636353,390.581207 1166.706543,398.552551 
M1184.217285,351.114380 
	C1185.741089,354.981079 1187.264893,358.847778 1188.788818,362.714478 
	C1189.455811,362.478058 1190.122803,362.241669 1190.789795,362.005249 
	C1188.621826,354.351532 1186.453979,346.697784 1184.286011,339.044037 
	C1183.524536,339.226135 1182.763062,339.408203 1182.001587,339.590271 
	C1182.679688,343.167908 1183.357788,346.745544 1184.217285,351.114380 
M1197.569458,348.581451 
	C1196.245239,342.074036 1194.921021,335.566620 1193.596802,329.059204 
	C1192.978516,329.200806 1192.360352,329.342377 1191.742188,329.483948 
	C1190.991089,337.853943 1193.544189,345.484741 1197.846436,352.757690 
	C1197.780029,351.621826 1197.713623,350.485992 1197.569458,348.581451 
M1158.991943,406.623718 
	C1157.160522,402.071869 1155.329102,397.520050 1153.497681,392.968201 
	C1152.779297,393.264801 1152.060913,393.561432 1151.342529,393.858032 
	C1154.036255,401.412720 1156.730103,408.967407 1159.423828,416.522125 
	C1159.979248,416.345428 1160.534546,416.168732 1161.089966,415.992004 
	C1160.436890,413.133484 1159.783936,410.274963 1158.991943,406.623718 
M1176.643555,353.982849 
	C1175.959473,353.085510 1175.275269,352.188202 1174.591187,351.290863 
	C1174.098511,351.545990 1173.605713,351.801117 1173.112915,352.056244 
	C1175.483887,358.317413 1177.854858,364.578613 1180.225708,370.839783 
	C1180.891113,370.607635 1181.556519,370.375519 1182.221924,370.143402 
	C1180.471558,364.983459 1178.721191,359.823517 1176.643555,353.982849 
M1175.195801,392.727814 
	C1172.895630,388.556305 1170.595459,384.384796 1168.295288,380.213287 
	C1167.908325,380.416565 1167.521362,380.619873 1167.134399,380.823151 
	C1168.658936,386.400665 1170.183472,391.978180 1172.034668,398.751068 
	C1173.426392,396.398468 1174.270508,394.971466 1175.195801,392.727814 
M1181.090698,355.419525 
	C1182.720703,361.231537 1184.350830,367.043549 1185.980835,372.855560 
	C1187.674805,371.283508 1189.276733,369.116516 1188.736206,367.907501 
	C1186.691284,363.334381 1183.951294,359.072052 1181.090698,355.419525 
M1181.170288,377.586548 
	C1179.618530,375.105713 1178.066650,372.624908 1176.514893,370.144073 
	C1176.256714,370.245361 1175.998535,370.346649 1175.740234,370.447937 
	C1176.946533,375.112701 1178.152832,379.777466 1179.359131,384.442230 
	C1179.864624,384.444000 1180.370117,384.445740 1180.875610,384.447510 
	C1181.113281,382.370056 1181.350952,380.292603 1181.170288,377.586548 
M1172.893433,364.325043 
	C1173.213867,364.211761 1173.534180,364.098480 1173.854614,363.985229 
	C1173.466431,363.865295 1173.078125,363.745361 1172.893433,364.325043 
M1175.065186,367.263458 
	C1174.883301,366.903748 1174.701416,366.544006 1174.519531,366.184296 
	C1174.539429,366.684326 1174.559326,367.184357 1175.065186,367.263458 
z"/>
<path fill="#EFF1F8" opacity="1.000000" stroke="none" 
	d="
M707.934570,387.913269 
	C719.054199,357.678833 744.584473,349.902618 781.135010,365.443512 
	C781.339233,363.137115 781.536499,360.909454 781.751892,358.477417 
	C786.108521,358.477417 790.207275,358.477417 794.711426,358.477417 
	C794.711426,387.798157 794.711426,417.129425 794.711426,446.736542 
	C790.589050,446.736542 786.329651,446.736542 781.719788,446.736542 
	C781.531311,444.285553 781.335938,441.745300 781.129028,439.054596 
	C760.455322,450.608246 739.982544,452.989349 721.163818,436.880219 
	C706.239441,424.104767 702.760681,407.110504 707.934570,387.913269 
M781.434265,384.707825 
	C782.176941,380.532806 780.237854,377.972290 776.782837,375.781158 
	C768.601624,370.592865 759.698364,368.310883 750.172119,369.090363 
	C737.007874,370.167480 727.166870,376.744568 721.816833,388.870239 
	C716.481628,400.962463 717.976807,412.642395 726.306824,423.058044 
	C738.156189,437.873932 761.066406,440.162445 777.762268,428.533051 
	C780.514709,426.615875 781.571167,424.485992 781.513000,421.110718 
	C781.309631,409.295959 781.434326,397.475616 781.434265,384.707825 
z"/>
<path fill="#EFF1F8" opacity="1.000000" stroke="none" 
	d="
M524.527954,428.550201 
	C540.943481,440.062103 558.593811,438.183990 573.929260,423.213745 
	C576.816406,425.464691 579.763855,427.762634 582.701782,430.053223 
	C571.321289,445.905701 546.342346,452.437836 526.576843,444.971130 
	C508.311829,438.071289 496.494202,418.715759 498.440155,398.887421 
	C501.554779,367.150665 531.102112,348.391968 560.272217,359.835114 
	C576.417236,366.168640 583.703491,379.205933 585.862976,395.629913 
	C586.331726,399.195465 585.931458,402.875275 585.931458,406.847870 
	C561.291138,406.847870 536.849365,406.847870 512.151245,406.847870 
	C513.393616,415.898376 517.629761,422.778778 524.527954,428.550201 
M570.988770,386.730072 
	C565.337708,372.627899 552.669861,365.598785 537.962952,368.404877 
	C523.915894,371.085083 513.037048,382.970917 512.902588,395.856293 
	C532.816406,395.856293 552.729126,395.856293 573.136536,395.856293 
	C572.440369,392.900360 571.805481,390.204498 570.988770,386.730072 
z"/>
<path fill="#F0F2F8" opacity="1.000000" stroke="none" 
	d="
M687.027649,392.148102 
	C687.043396,410.582916 687.043396,428.537720 687.043396,446.750061 
	C682.602356,446.750061 678.335999,446.750061 673.543396,446.750061 
	C673.543396,444.966003 673.550537,443.173981 673.542297,441.382019 
	C673.471252,425.896088 673.928650,410.384644 673.186646,394.930847 
	C672.307129,376.613495 661.579956,367.728668 643.248840,369.085938 
	C635.830872,369.635162 628.990601,371.924042 622.852295,376.376343 
	C620.390259,378.162140 619.602600,380.060211 619.620239,382.998230 
	C619.737549,402.483948 619.681030,421.970673 619.681030,441.457092 
	C619.681030,443.099579 619.681030,444.742065 619.681030,446.689758 
	C615.121643,446.689758 610.876221,446.689758 606.288452,446.689758 
	C606.288452,417.490540 606.288452,388.131073 606.288452,358.509003 
	C610.594055,358.509003 614.830872,358.509003 619.414551,358.509003 
	C619.568970,360.949219 619.712830,363.222229 619.882446,365.903595 
	C620.732056,365.496704 621.435486,365.265747 622.021362,364.863586 
	C634.701172,356.160858 648.637085,354.826691 663.070618,358.630798 
	C677.761169,362.502655 685.729553,373.955719 687.027649,392.148102 
z"/>
<path fill="#EDF0F6" opacity="1.000000" stroke="none" 
	d="
M456.985382,391.000122 
	C457.267181,401.968781 456.986694,412.492249 458.000488,422.889557 
	C458.885223,431.963226 464.103607,435.914185 473.191223,436.004944 
	C477.492737,436.047913 481.798920,435.628021 486.223602,435.411926 
	C486.349762,435.752380 486.672485,436.205811 486.659485,436.649445 
	C486.376648,446.282593 489.260742,445.572968 477.797180,447.301453 
	C473.241394,447.988373 468.425995,448.235291 463.895294,447.561951 
	C451.212463,445.677124 443.328033,435.939911 443.148895,422.187866 
	C442.944977,406.536224 443.087524,390.880096 443.079681,375.225922 
	C443.078857,373.595886 443.079559,371.965851 443.079559,369.992554 
	C438.293365,369.992554 433.857208,369.992554 428.994568,369.992554 
	C428.994568,365.974335 428.994568,362.296906 428.994568,358.304138 
	C433.595764,358.304138 438.042206,358.304138 442.884583,358.304138 
	C442.884583,346.745972 442.884583,335.486572 442.884583,323.814362 
	C447.638916,323.814362 452.010498,323.814362 456.934570,323.814362 
	C456.934570,335.147003 456.934570,346.527222 456.934570,358.220795 
	C467.073212,358.220795 476.674683,358.220795 486.621307,358.220795 
	C486.621307,362.090118 486.621307,365.649963 486.621307,369.694550 
	C476.942749,369.694550 467.207977,369.694550 456.985382,369.694550 
	C456.985382,376.944183 456.985382,383.722137 456.985382,391.000122 
z"/>
<path fill="#223BF5" opacity="1.000000" stroke="none" 
	d="
M683.207581,272.982025 
	C679.457886,272.704224 679.991272,275.070953 679.986572,276.996002 
	C679.966614,285.122101 679.978149,293.248260 679.978149,301.689819 
	C677.682922,301.689819 675.936401,301.689819 673.738708,301.689819 
	C673.606262,300.243866 673.362549,298.808777 673.360413,297.373352 
	C673.334229,279.374603 673.427612,261.375092 673.271912,243.377670 
	C673.240540,239.748383 674.171814,238.272141 678.025391,238.454895 
	C684.011597,238.738800 690.021667,238.477997 696.020508,238.546188 
	C706.514343,238.665466 713.137939,243.168472 714.732788,251.559280 
	C716.246765,259.524567 714.107971,268.778137 703.546936,272.301178 
	C703.291626,272.386383 703.140076,272.782898 702.613586,273.444672 
	C706.958923,282.484436 711.403381,291.730438 715.968750,301.227905 
	C711.823547,302.840668 709.348083,302.187866 707.590149,298.011078 
	C704.751831,291.267059 701.086426,284.867218 698.330078,278.094208 
	C696.692749,274.070923 694.527344,272.262878 690.174133,272.921570 
	C688.056030,273.242035 685.849487,272.977966 683.207581,272.982025 
M679.976074,265.184387 
	C680.703308,266.055328 681.419250,267.668335 682.159668,267.679657 
	C687.971863,267.768707 693.840027,267.984680 699.590027,267.306305 
	C705.367676,266.624603 708.893555,261.794220 708.840454,256.069397 
	C708.786377,250.239899 705.365723,245.336121 699.641846,244.747498 
	C693.290283,244.094315 686.819763,244.598053 679.966980,244.598053 
	C679.966980,251.313339 679.966980,257.776428 679.976074,265.184387 
z"/>
<path fill="#223CFB" opacity="1.000000" stroke="none" 
	d="
M580.125916,276.794983 
	C578.254944,275.276520 576.639038,273.377411 574.793396,273.118927 
	C571.059753,272.595978 567.201477,272.962921 562.652710,272.962921 
	C562.652710,282.687256 562.652710,292.065979 562.652710,301.710693 
	C560.157593,301.710693 558.406860,301.710693 556.322815,301.710693 
	C556.322815,280.827362 556.322815,260.086365 556.322815,239.411484 
	C566.295837,239.411484 576.269470,238.703812 586.081360,239.658615 
	C592.697388,240.302429 596.935364,246.905350 597.674255,254.214478 
	C598.389526,261.290680 595.027710,267.863159 589.075195,270.934296 
	C587.903503,271.538818 586.656006,271.996338 584.803894,272.798737 
	C589.353760,282.329376 593.873962,291.797882 598.430481,301.342529 
	C594.039978,302.873871 591.696228,301.799408 590.041077,297.931580 
	C587.032471,290.901306 583.557434,284.070587 580.125916,276.794983 
M590.543335,251.486237 
	C587.725281,249.167099 585.157532,245.369431 582.036255,244.840988 
	C575.812927,243.787277 569.285706,244.528824 562.721497,244.528824 
	C562.721497,252.408981 562.721497,259.931427 562.721497,267.855255 
	C567.790771,267.855255 572.425598,267.873199 577.060303,267.851654 
	C588.041016,267.800568 592.008484,263.296722 590.543335,251.486237 
z"/>
<path fill="#213AF4" opacity="1.000000" stroke="none" 
	d="
M754.493286,300.939178 
	C760.702148,281.125824 767.034851,261.699341 773.251953,242.235931 
	C774.097961,239.587372 775.553589,238.039261 778.237732,238.757233 
	C780.005249,239.229996 782.552368,240.249146 783.016174,241.613297 
	C789.593018,260.956116 795.875183,280.399231 802.209290,299.824341 
	C802.355225,300.271729 802.275452,300.792755 802.308655,301.426819 
	C797.874695,303.166168 795.895142,301.520844 794.494446,297.109039 
	C791.779663,288.558319 793.907288,289.926880 784.388794,289.796234 
	C780.563416,289.743713 776.736633,289.787537 772.910522,289.787598 
	C764.664429,289.787750 764.455627,289.727142 762.177795,297.570557 
	C760.886963,302.015350 758.646667,303.171875 754.493286,300.939178 
M768.943054,284.193970 
	C775.877014,284.193970 782.810974,284.193970 790.456726,284.193970 
	C786.405090,271.434143 782.606506,259.471283 778.381714,246.166199 
	C774.345215,259.009644 770.696716,270.554169 767.146667,282.128845 
	C766.989441,282.641357 767.729797,283.429108 768.943054,284.193970 
z"/>
<path fill="#223AF5" opacity="1.000000" stroke="none" 
	d="
M656.923218,297.037109 
	C657.353943,298.683258 657.681396,299.938568 658.034668,301.292908 
	C653.364746,303.221008 650.717041,301.663025 650.102051,297.100525 
	C649.269653,290.924896 645.955566,289.033112 639.941650,289.669830 
	C634.679199,290.227020 629.303833,289.954102 623.992493,289.723053 
	C620.916077,289.589233 619.345337,290.682220 618.835815,293.670441 
	C618.614868,294.966370 617.900269,296.176666 617.666992,297.472137 
	C616.904602,301.706024 614.488770,302.934723 609.972595,301.433838 
	C610.258362,300.150818 610.450439,298.766846 610.875488,297.458557 
	C616.775452,279.297485 622.765930,261.165466 628.571533,242.974442 
	C629.497375,240.073334 630.590637,238.552551 633.990417,238.537430 
	C637.526794,238.521683 638.367432,240.383392 639.265259,243.161011 
	C645.036194,261.015472 650.951843,278.823181 656.923218,297.037109 
M635.489563,251.146194 
	C635.001404,250.110962 634.513306,249.075729 633.577637,247.091400 
	C629.504395,260.037964 625.794556,271.829498 621.976074,283.966492 
	C630.170349,283.966492 637.742798,283.966492 645.842102,283.966492 
	C642.402954,273.013458 639.084229,262.444153 635.489563,251.146194 
z"/>
<path fill="#223BF7" opacity="1.000000" stroke="none" 
	d="
M525.053345,288.135071 
	C523.768372,292.159119 522.824097,295.904724 521.263184,299.372742 
	C520.710083,300.601624 518.656128,301.824799 517.284546,301.828003 
	C515.899841,301.831268 513.644226,300.605560 513.254211,299.427124 
	C506.678528,279.557617 500.334991,259.611298 493.908875,239.585052 
	C498.614746,237.670502 500.730743,239.142517 502.068756,243.671738 
	C506.308411,258.023224 510.924469,272.263672 515.414978,286.540741 
	C515.952515,288.249939 516.612976,289.920471 517.530334,292.486969 
	C522.831726,275.593842 528.002747,259.627533 532.783325,243.545181 
	C534.079895,239.183578 536.101746,237.811890 540.868286,239.534286 
	C535.622253,255.626495 530.386658,271.686829 525.053345,288.135071 
z"/>
<path fill="#2139EF" opacity="1.000000" stroke="none" 
	d="
M420.876770,238.655472 
	C424.815613,238.882568 423.781860,241.615341 423.790131,243.539551 
	C423.856628,259.003052 423.827362,274.466980 423.827454,289.930756 
	C423.827454,291.738892 423.827484,293.547028 423.827484,296.211029 
	C426.259247,296.211029 428.335480,296.210266 430.411743,296.211151 
	C438.226776,296.214478 446.045074,296.110901 453.852905,296.349426 
	C454.903198,296.381500 455.900757,298.138367 456.922729,299.096497 
	C455.943665,300.073822 454.979370,301.883484 453.983337,301.901123 
	C442.680115,302.101318 431.370605,302.101898 420.067444,301.898041 
	C419.065674,301.879974 417.246887,300.058472 417.238007,299.061798 
	C417.066956,279.941467 417.058105,260.818726 417.252686,241.698853 
	C417.263153,240.670547 419.354401,239.663391 420.876770,238.655472 
z"/>
<path fill="#2038EC" opacity="1.000000" stroke="none" 
	d="
M1103.031250,172.903625 
	C1100.600830,170.995697 1098.471191,169.284546 1096.341553,167.573395 
	C1096.876099,166.986374 1097.410645,166.399353 1097.945190,165.812332 
	C1120.717285,180.315292 1139.396118,199.140274 1154.418335,221.646484 
	C1173.445435,250.152634 1184.541138,281.408569 1187.055786,315.498993 
	C1186.472412,315.674652 1185.889160,315.850281 1185.305786,316.025940 
	C1182.313110,302.400269 1180.289185,288.464661 1176.056885,275.235535 
	C1171.778198,261.861420 1166.377319,248.587952 1159.507080,236.373413 
	C1152.548828,224.002472 1144.088623,212.178421 1134.628540,201.596893 
	C1125.274658,191.134109 1113.848877,182.523499 1103.031250,172.903625 
z"/>
<path fill="#2139ED" opacity="1.000000" stroke="none" 
	d="
M472.096069,252.018326 
	C472.096100,247.535248 472.096100,243.548523 472.096100,238.994858 
	C474.274384,238.893387 476.149292,238.806030 478.353668,238.703339 
	C478.545074,240.391434 478.811920,241.658127 478.813812,242.925232 
	C478.840942,261.091248 478.833130,279.257294 478.831390,297.423340 
	C478.831146,299.756012 479.259979,302.103821 475.503937,302.120361 
	C471.817963,302.136597 472.085541,299.923828 472.088226,297.513123 
	C472.104980,282.513641 472.096313,267.514160 472.096069,252.018326 
z"/>
<path fill="#2139ED" opacity="1.000000" stroke="none" 
	d="
M732.309692,289.975952 
	C732.309692,274.317627 732.299072,259.154266 732.314575,243.990936 
	C732.320496,238.211777 732.397339,238.172150 738.654907,239.252823 
	C738.654907,259.906769 738.654907,280.621216 738.654907,301.294403 
	C732.621399,302.661530 732.364197,302.483887 732.312927,296.969513 
	C732.292786,294.803497 732.309509,292.637177 732.309692,289.975952 
z"/>
<path fill="#FAFDFF" opacity="1.000000" stroke="none" 
	d="
M1091.749512,273.858032 
	C1101.091797,274.704895 1106.805298,280.343353 1106.831909,289.115631 
	C1106.948608,327.446228 1106.949463,365.777618 1106.836182,404.108246 
	C1106.809570,413.090088 1100.578125,419.108276 1091.621948,419.114685 
	C1025.459351,419.162079 959.296753,419.162689 893.134155,419.117371 
	C884.135864,419.111206 878.064697,413.165527 878.040100,404.080231 
	C877.936340,365.749542 877.932617,327.418274 878.040833,289.087616 
	C878.066650,279.928253 884.434753,273.988495 893.650452,273.854218 
	C903.297302,273.713654 903.297241,273.713654 903.298767,264.022858 
	C903.300293,254.334488 903.650330,253.992035 913.062988,252.859207 
	C940.401733,249.568939 965.670410,255.432709 988.876343,270.127625 
	C991.511230,271.796112 993.306335,271.858032 995.969971,270.183655 
	C1020.166809,254.972794 1046.516357,249.525589 1074.827271,253.123718 
	C1079.631592,253.734314 1082.073608,255.966263 1081.725586,260.969910 
	C1081.575684,263.126007 1081.698853,265.301239 1081.701538,267.467773 
	C1081.709595,273.845306 1081.710327,273.845398 1088.294678,273.853302 
	C1089.294556,273.854523 1090.294556,273.854645 1091.749512,273.858032 
M1017.825623,270.175079 
	C1012.655212,272.849579 1007.527893,275.612274 1002.299561,278.168182 
	C998.716248,279.919891 997.586853,282.480347 997.604370,286.512085 
	C997.766479,323.830109 997.700134,361.149139 997.700073,398.467865 
	C997.700073,400.222290 997.700012,401.976746 997.700012,404.989014 
	C1020.894165,391.547424 1044.898560,386.353851 1070.735107,388.452667 
	C1070.735107,346.353180 1070.735107,304.832184 1070.735107,263.113708 
	C1052.457764,260.561707 1035.287598,263.522675 1017.825623,270.175079 
M913.886780,361.500000 
	C913.886780,370.278259 913.886780,379.056488 913.886780,388.498199 
	C940.202576,386.305542 964.286255,391.673309 986.669128,404.679047 
	C986.926880,403.576111 987.067505,403.254883 987.067688,402.933594 
	C987.088806,363.445038 987.137024,323.956299 986.985962,284.468414 
	C986.979309,282.736176 985.573059,280.189911 984.091980,279.418610 
	C975.853394,275.128143 967.671326,270.451508 958.940002,267.447144 
	C944.546631,262.494446 929.591797,260.645294 913.886658,263.300049 
	C913.886658,295.922882 913.886658,328.211456 913.886780,361.500000 
M888.131226,388.498108 
	C888.131287,392.830109 888.112488,397.162231 888.135681,401.494110 
	C888.171631,408.205597 889.612305,409.669952 896.392395,409.676453 
	C919.885315,409.699005 943.378235,409.692291 966.871155,409.669159 
	C968.418518,409.667633 969.965698,409.435425 972.227112,409.252838 
	C971.147888,408.297974 970.831421,407.888306 970.414429,407.674652 
	C969.380066,407.144562 968.312134,406.674133 967.236206,406.231995 
	C948.949951,398.717010 930.006592,396.562714 910.448608,399.164368 
	C905.517151,399.820374 903.767517,398.274384 903.369019,393.347656 
	C903.248535,391.857025 903.315063,390.350342 903.315002,388.851013 
	C903.312805,356.027557 903.313354,323.204102 903.313354,290.380646 
	C903.313354,288.432373 903.313354,286.484100 903.313354,284.333374 
	C901.765564,284.131348 900.813721,283.932434 899.855408,283.893463 
	C888.941345,283.449799 888.131104,284.226013 888.131165,295.026733 
	C888.131165,325.850800 888.131348,356.674835 888.131226,388.498108 
M1081.690308,313.500000 
	C1081.690430,328.492615 1081.691040,343.485260 1081.690430,358.477875 
	C1081.690063,369.639038 1081.767578,380.800964 1081.656372,391.961029 
	C1081.593384,398.273102 1079.422119,400.350525 1074.049316,399.597229 
	C1060.914185,397.755737 1047.806519,397.940918 1034.927612,401.089996 
	C1027.345581,402.943909 1020.000671,405.767426 1012.549133,408.154816 
	C1012.680237,408.725525 1012.811340,409.296204 1012.942444,409.866882 
	C1014.515503,409.866882 1016.088562,409.866913 1017.661621,409.866913 
	C1040.816895,409.866913 1063.972046,409.868408 1087.127319,409.866058 
	C1095.614258,409.865204 1096.856934,408.627747 1096.859253,400.016876 
	C1096.869141,364.534424 1096.873047,329.051971 1096.837769,293.569550 
	C1096.835815,291.591736 1096.942627,289.379181 1096.122192,287.705536 
	C1095.364746,286.160278 1093.564209,284.412689 1091.981445,284.136017 
	C1088.810913,283.581879 1085.475464,283.971497 1081.689697,283.971497 
	C1081.689697,293.915283 1081.689697,303.207642 1081.690308,313.500000 
z"/>
<path fill="#080C32" opacity="1.000000" stroke="none" 
	d="
M327.788086,279.833954 
	C331.736450,268.031128 335.559387,256.604553 339.858948,243.753387 
	C353.359253,283.731476 366.425659,322.424774 379.642914,361.564728 
	C352.967499,361.564728 326.972961,361.564728 300.241638,361.564728 
	C309.468201,334.190704 318.565430,307.200470 327.788086,279.833954 
z"/>
<path fill="#070D3D" opacity="1.000000" stroke="none" 
	d="
M1214.265869,333.189697 
	C1210.980835,338.182465 1207.906738,342.874695 1204.832764,347.566895 
	C1206.285767,337.845490 1206.841675,327.759888 1216.547485,321.348511 
	C1219.505249,326.551392 1216.271240,329.567444 1214.265869,333.189697 
z"/>
<path fill="#080F43" opacity="1.000000" stroke="none" 
	d="
M1147.830078,420.054626 
	C1146.389038,414.401886 1145.066284,409.120605 1143.743408,403.839355 
	C1144.688843,403.584259 1145.634399,403.329193 1146.579834,403.074097 
	C1149.819336,412.984100 1153.058960,422.894104 1156.298462,432.804108 
	C1155.630737,433.064697 1154.963135,433.325287 1154.295410,433.585876 
	C1152.179688,429.199310 1150.063965,424.812744 1147.830078,420.054626 
z"/>
<path fill="#080F43" opacity="1.000000" stroke="none" 
	d="
M1177.772827,440.762909 
	C1171.536133,440.074249 1165.735229,439.339813 1159.934448,438.605347 
	C1159.994385,438.098175 1160.054443,437.591003 1160.114380,437.083801 
	C1168.978271,435.538696 1177.809082,434.833527 1186.495728,437.780090 
	C1186.541870,438.335938 1186.587891,438.891754 1186.634033,439.447601 
	C1183.825562,439.870758 1181.017212,440.293945 1177.772827,440.762909 
z"/>
<path fill="#070D3D" opacity="1.000000" stroke="none" 
	d="
M1196.095215,380.519623 
	C1195.168457,380.153809 1194.584473,379.911713 1193.176880,379.328156 
	C1203.146484,377.521423 1212.161865,376.646454 1220.966064,380.884644 
	C1212.775024,384.828644 1204.607666,382.026855 1196.095215,380.519623 
z"/>
<path fill="#070E41" opacity="1.000000" stroke="none" 
	d="
M1167.603516,370.329346 
	C1166.452271,366.697937 1165.454346,363.427124 1164.456299,360.156342 
	C1164.896851,360.004761 1165.337402,359.853180 1165.777954,359.701599 
	C1172.072388,367.334656 1174.830200,376.405579 1176.144897,386.063232 
	C1175.725586,386.257416 1175.306274,386.451599 1174.886963,386.645813 
	C1172.510254,381.327179 1170.133423,376.008545 1167.603516,370.329346 
z"/>
<path fill="#080F46" opacity="1.000000" stroke="none" 
	d="
M1200.544922,367.892700 
	C1200.002075,367.414032 1199.830200,367.021118 1199.658447,366.628174 
	C1207.723022,364.671509 1215.737915,364.201294 1223.647827,367.459747 
	C1216.158569,371.774902 1208.516602,369.021637 1200.544922,367.892700 
z"/>
<path fill="#080F43" opacity="1.000000" stroke="none" 
	d="
M1193.674072,404.942627 
	C1197.579834,405.802795 1201.028442,406.632385 1204.476929,407.462006 
	C1204.370605,408.027344 1204.264404,408.592682 1204.158081,409.158051 
	C1195.471924,410.805328 1187.166138,408.015656 1178.734131,406.697968 
	C1178.738770,406.102661 1178.743286,405.507355 1178.747803,404.912048 
	C1183.570923,404.912048 1188.393921,404.912048 1193.674072,404.942627 
z"/>
<path fill="#070E41" opacity="1.000000" stroke="none" 
	d="
M1195.039795,390.850952 
	C1201.131226,390.700958 1206.646851,390.977783 1212.656738,394.605713 
	C1202.781860,397.506073 1194.771973,393.911987 1186.532349,392.732971 
	C1186.518799,392.298737 1186.505127,391.864502 1186.491577,391.430267 
	C1189.181519,391.237946 1191.871338,391.045624 1195.039795,390.850952 
z"/>
<path fill="#080F43" opacity="1.000000" stroke="none" 
	d="
M1156.562622,451.142517 
	C1163.431030,451.216339 1170.048096,450.382141 1175.638184,454.919128 
	C1167.947266,456.666534 1160.575439,455.649292 1152.163818,452.416565 
	C1154.227173,451.757751 1155.178345,451.454010 1156.562622,451.142517 
z"/>
<path fill="#080F43" opacity="1.000000" stroke="none" 
	d="
M1222.381104,350.156616 
	C1227.126709,351.892609 1224.066650,353.235992 1222.355591,353.648865 
	C1216.585205,355.041168 1210.719116,356.036682 1204.681641,356.426636 
	C1209.580566,351.823090 1215.330322,349.747131 1222.381104,350.156616 
z"/>
<path fill="#080F46" opacity="1.000000" stroke="none" 
	d="
M1182.013306,420.123718 
	C1186.906128,420.655670 1191.338623,421.187561 1195.771118,421.719482 
	C1195.696289,422.436981 1195.621582,423.154510 1195.546753,423.872009 
	C1187.467896,425.029846 1179.535767,423.391388 1171.544922,421.017883 
	C1174.880981,420.719818 1178.216919,420.421722 1182.013306,420.123718 
z"/>
<path fill="#080F46" opacity="1.000000" stroke="none" 
	d="
M1145.367188,447.247131 
	C1140.515991,438.956146 1137.337036,430.348633 1136.715576,420.898376 
	C1141.500854,429.099762 1145.118408,437.705536 1145.367188,447.247131 
z"/>
<path fill="#080F46" opacity="1.000000" stroke="none" 
	d="
M1166.539062,398.236816 
	C1163.636353,390.581207 1160.901245,383.241364 1158.166016,375.901550 
	C1158.728882,375.694855 1159.291748,375.488190 1159.854614,375.281525 
	C1164.714600,382.327759 1167.480591,390.201569 1168.447754,398.786346 
	C1167.867310,398.708405 1167.286987,398.630493 1166.539062,398.236816 
z"/>
<path fill="#080F43" opacity="1.000000" stroke="none" 
	d="
M1184.126709,350.718781 
	C1183.357788,346.745544 1182.679688,343.167908 1182.001587,339.590271 
	C1182.763062,339.408203 1183.524536,339.226135 1184.286011,339.044037 
	C1186.453979,346.697784 1188.621826,354.351532 1190.789795,362.005249 
	C1190.122803,362.241669 1189.455811,362.478058 1188.788818,362.714478 
	C1187.264893,358.847778 1185.741089,354.981079 1184.126709,350.718781 
z"/>
<path fill="#09114C" opacity="1.000000" stroke="none" 
	d="
M1197.608398,348.965820 
	C1197.713623,350.485992 1197.780029,351.621826 1197.846436,352.757690 
	C1193.544189,345.484741 1190.991089,337.853943 1191.742188,329.483948 
	C1192.360352,329.342377 1192.978516,329.200806 1193.596802,329.059204 
	C1194.921021,335.566620 1196.245239,342.074036 1197.608398,348.965820 
z"/>
<path fill="#080F46" opacity="1.000000" stroke="none" 
	d="
M1159.061401,407.020081 
	C1159.783936,410.274963 1160.436890,413.133484 1161.089966,415.992004 
	C1160.534546,416.168732 1159.979248,416.345428 1159.423828,416.522125 
	C1156.730103,408.967407 1154.036255,401.412720 1151.342529,393.858032 
	C1152.060913,393.561432 1152.779297,393.264801 1153.497681,392.968201 
	C1155.329102,397.520050 1157.160522,402.071869 1159.061401,407.020081 
z"/>
<path fill="#080F46" opacity="1.000000" stroke="none" 
	d="
M1176.807129,354.323242 
	C1178.721191,359.823517 1180.471558,364.983459 1182.221924,370.143402 
	C1181.556519,370.375519 1180.891113,370.607635 1180.225708,370.839783 
	C1177.854858,364.578613 1175.483887,358.317413 1173.112915,352.056244 
	C1173.605713,351.801117 1174.098511,351.545990 1174.591187,351.290863 
	C1175.275269,352.188202 1175.959473,353.085510 1176.807129,354.323242 
z"/>
<path fill="#050A30" opacity="1.000000" stroke="none" 
	d="
M1175.155273,393.136139 
	C1174.270508,394.971466 1173.426392,396.398468 1172.034668,398.751068 
	C1170.183472,391.978180 1168.658936,386.400665 1167.134399,380.823151 
	C1167.521362,380.619873 1167.908325,380.416565 1168.295288,380.213287 
	C1170.595459,384.384796 1172.895630,388.556305 1175.155273,393.136139 
z"/>
<path fill="#050A30" opacity="1.000000" stroke="none" 
	d="
M1181.281006,355.056458 
	C1183.951294,359.072052 1186.691284,363.334381 1188.736206,367.907501 
	C1189.276733,369.116516 1187.674805,371.283508 1185.980835,372.855560 
	C1184.350830,367.043549 1182.720703,361.231537 1181.281006,355.056458 
z"/>
<path fill="#050A30" opacity="1.000000" stroke="none" 
	d="
M1181.379517,377.900879 
	C1181.350952,380.292603 1181.113281,382.370056 1180.875610,384.447510 
	C1180.370117,384.445740 1179.864624,384.444000 1179.359131,384.442230 
	C1178.152832,379.777466 1176.946533,375.112701 1175.740234,370.447937 
	C1175.998535,370.346649 1176.256714,370.245361 1176.514893,370.144073 
	C1178.066650,372.624908 1179.618530,375.105713 1181.379517,377.900879 
z"/>
<path fill="#050A30" opacity="1.000000" stroke="none" 
	d="
M1155.416870,414.647400 
	C1156.781616,417.069000 1158.479004,419.372589 1159.394531,421.953583 
	C1160.007812,423.682098 1159.511108,425.804321 1159.511108,427.750366 
	C1158.925659,427.831604 1158.340210,427.912842 1157.754761,427.994080 
	C1156.639038,424.066315 1155.523193,420.138580 1154.651489,415.638306 
	C1155.069214,414.926361 1155.243042,414.786896 1155.416870,414.647400 
z"/>
<path fill="#050A30" opacity="1.000000" stroke="none" 
	d="
M1191.552246,347.527344 
	C1192.879883,350.345642 1194.451050,353.082336 1195.434082,356.016113 
	C1195.936646,357.515411 1195.384766,359.367950 1195.309570,361.060791 
	C1194.751343,361.094482 1194.193115,361.128174 1193.635010,361.161835 
	C1192.557861,357.177826 1191.480713,353.193817 1190.686523,348.605316 
	C1191.163696,347.842987 1191.358032,347.685150 1191.552246,347.527344 
z"/>
<path fill="#050A30" opacity="1.000000" stroke="none" 
	d="
M1189.443970,345.462921 
	C1189.120361,344.114471 1188.796753,342.766052 1188.473267,341.417603 
	C1188.739136,341.323517 1189.005005,341.229462 1189.270996,341.135376 
	C1189.676392,342.024048 1190.081787,342.912720 1190.237793,344.403259 
	C1189.806885,345.157745 1189.625366,345.310333 1189.443970,345.462921 
z"/>
<path fill="#050A30" opacity="1.000000" stroke="none" 
	d="
M1153.605713,413.321899 
	C1153.336914,412.480804 1153.068115,411.639709 1152.799316,410.798584 
	C1152.997070,410.685730 1153.194824,410.572876 1153.392578,410.460022 
	C1153.697144,410.963074 1154.001831,411.466156 1154.172852,412.460968 
	C1153.894653,413.075806 1153.750122,413.198853 1153.605713,413.321899 
z"/>
<path fill="#050A30" opacity="1.000000" stroke="none" 
	d="
M1190.657471,348.210022 
	C1190.090820,347.634552 1189.836182,346.849945 1189.512695,345.764099 
	C1189.625366,345.310333 1189.806885,345.157745 1190.272705,344.786499 
	C1190.831421,345.354828 1191.105957,346.141785 1191.466309,347.228058 
	C1191.358032,347.685150 1191.163696,347.842987 1190.657471,348.210022 
z"/>
<path fill="#050A30" opacity="1.000000" stroke="none" 
	d="
M1150.141846,401.884460 
	C1150.712891,402.527283 1150.979004,403.441071 1151.245239,404.354828 
	C1151.059204,404.496002 1150.873169,404.637207 1150.687134,404.778381 
	C1150.262695,404.306000 1149.838135,403.833618 1149.338745,403.048279 
	C1149.454834,402.542053 1149.645996,402.348724 1150.141846,401.884460 
z"/>
<path fill="#050A30" opacity="1.000000" stroke="none" 
	d="
M1154.616699,415.250305 
	C1154.131470,414.914276 1153.924927,414.393738 1153.662109,413.597534 
	C1153.750122,413.198853 1153.894653,413.075806 1154.259766,412.767700 
	C1154.739258,413.088165 1154.998169,413.593658 1155.336914,414.373260 
	C1155.243042,414.786896 1155.069214,414.926361 1154.616699,415.250305 
z"/>
<path fill="#050A30" opacity="1.000000" stroke="none" 
	d="
M1172.791748,363.975220 
	C1173.078125,363.745361 1173.466431,363.865295 1173.854614,363.985229 
	C1173.534180,364.098480 1173.213867,364.211761 1172.791748,363.975220 
z"/>
<path fill="#050A30" opacity="1.000000" stroke="none" 
	d="
M1174.822266,367.473938 
	C1174.559326,367.184357 1174.539429,366.684326 1174.519531,366.184296 
	C1174.701416,366.544006 1174.883301,366.903748 1174.822266,367.473938 
z"/>
<path fill="#050A30" opacity="1.000000" stroke="none" 
	d="
M1168.187256,418.223633 
	C1168.024170,418.295258 1167.619141,418.124847 1167.317383,417.748291 
	C1167.595581,417.688629 1167.770386,417.835114 1168.187256,418.223633 
z"/>
<path fill="#050A30" opacity="1.000000" stroke="none" 
	d="
M1198.244995,363.292053 
	C1198.071411,363.345947 1197.687378,363.163239 1197.445312,362.793579 
	C1197.736572,362.756256 1197.885498,362.905853 1198.244995,363.292053 
z"/>
<path fill="#060B31" opacity="1.000000" stroke="none" 
	d="
M781.434326,385.182617 
	C781.434326,397.475616 781.309631,409.295959 781.513000,421.110718 
	C781.571167,424.485992 780.514709,426.615875 777.762268,428.533051 
	C761.066406,440.162445 738.156189,437.873932 726.306824,423.058044 
	C717.976807,412.642395 716.481628,400.962463 721.816833,388.870239 
	C727.166870,376.744568 737.007874,370.167480 750.172119,369.090363 
	C759.698364,368.310883 768.601624,370.592865 776.782837,375.781158 
	C780.237854,377.972290 782.176941,380.532806 781.434326,385.182617 
z"/>
<path fill="#070C32" opacity="1.000000" stroke="none" 
	d="
M571.079651,387.119385 
	C571.805481,390.204498 572.440369,392.900360 573.136536,395.856293 
	C552.729126,395.856293 532.816406,395.856293 512.902588,395.856293 
	C513.037048,382.970917 523.915894,371.085083 537.962952,368.404877 
	C552.669861,365.598785 565.337708,372.627899 571.079651,387.119385 
z"/>
<path fill="#060B35" opacity="1.000000" stroke="none" 
	d="
M679.971558,264.711975 
	C679.966980,257.776428 679.966980,251.313339 679.966980,244.598053 
	C686.819763,244.598053 693.290283,244.094315 699.641846,244.747498 
	C705.365723,245.336121 708.786377,250.239899 708.840454,256.069397 
	C708.893555,261.794220 705.367676,266.624603 699.590027,267.306305 
	C693.840027,267.984680 687.971863,267.768707 682.159668,267.679657 
	C681.419250,267.668335 680.703308,266.055328 679.971558,264.711975 
z"/>
<path fill="#060C37" opacity="1.000000" stroke="none" 
	d="
M590.678955,251.877045 
	C592.008484,263.296722 588.041016,267.800568 577.060303,267.851654 
	C572.425598,267.873199 567.790771,267.855255 562.721497,267.855255 
	C562.721497,259.931427 562.721497,252.408981 562.721497,244.528824 
	C569.285706,244.528824 575.812927,243.787277 582.036255,244.840988 
	C585.157532,245.369431 587.725281,249.167099 590.678955,251.877045 
z"/>
<path fill="#060B34" opacity="1.000000" stroke="none" 
	d="
M768.497620,284.141296 
	C767.729797,283.429108 766.989441,282.641357 767.146667,282.128845 
	C770.696716,270.554169 774.345215,259.009644 778.381714,246.166199 
	C782.606506,259.471283 786.405090,271.434143 790.456726,284.193970 
	C782.810974,284.193970 775.877014,284.193970 768.497620,284.141296 
z"/>
<path fill="#060B34" opacity="1.000000" stroke="none" 
	d="
M635.627563,251.510513 
	C639.084229,262.444153 642.402954,273.013458 645.842102,283.966492 
	C637.742798,283.966492 630.170349,283.966492 621.976074,283.966492 
	C625.794556,271.829498 629.504395,260.037964 633.577637,247.091400 
	C634.513306,249.075729 635.001404,250.110962 635.627563,251.510513 
z"/>
<path fill="#5CB6F9" opacity="1.000000" stroke="none" 
	d="
M1018.191162,270.049774 
	C1035.287598,263.522675 1052.457764,260.561707 1070.735107,263.113708 
	C1070.735107,304.832184 1070.735107,346.353180 1070.735107,388.452667 
	C1044.898560,386.353851 1020.894165,391.547424 997.700012,404.989014 
	C997.700012,401.976746 997.700073,400.222290 997.700073,398.467865 
	C997.700134,361.149139 997.766479,323.830109 997.604370,286.512085 
	C997.586853,282.480347 998.716248,279.919891 1002.299561,278.168182 
	C1007.527893,275.612274 1012.655212,272.849579 1018.191162,270.049774 
z"/>
<path fill="#5CB6F9" opacity="1.000000" stroke="none" 
	d="
M913.886719,361.000000 
	C913.886658,328.211456 913.886658,295.922882 913.886658,263.300049 
	C929.591797,260.645294 944.546631,262.494446 958.940002,267.447144 
	C967.671326,270.451508 975.853394,275.128143 984.091980,279.418610 
	C985.573059,280.189911 986.979309,282.736176 986.985962,284.468414 
	C987.137024,323.956299 987.088806,363.445038 987.067688,402.933594 
	C987.067505,403.254883 986.926880,403.576111 986.669128,404.679047 
	C964.286255,391.673309 940.202576,386.305542 913.886780,388.498199 
	C913.886780,379.056488 913.886780,370.278259 913.886719,361.000000 
z"/>
<path fill="#61B8F9" opacity="1.000000" stroke="none" 
	d="
M888.131348,387.998505 
	C888.131348,356.674835 888.131165,325.850800 888.131165,295.026733 
	C888.131104,284.226013 888.941345,283.449799 899.855408,283.893463 
	C900.813721,283.932434 901.765564,284.131348 903.313354,284.333374 
	C903.313354,286.484100 903.313354,288.432373 903.313354,290.380646 
	C903.313354,323.204102 903.312805,356.027557 903.315002,388.851013 
	C903.315063,390.350342 903.248535,391.857025 903.369019,393.347656 
	C903.767517,398.274384 905.517151,399.820374 910.448608,399.164368 
	C930.006592,396.562714 948.949951,398.717010 967.236206,406.231995 
	C968.312134,406.674133 969.380066,407.144562 970.414429,407.674652 
	C970.831421,407.888306 971.147888,408.297974 972.227112,409.252838 
	C969.965698,409.435425 968.418518,409.667633 966.871155,409.669159 
	C943.378235,409.692291 919.885315,409.699005 896.392395,409.676453 
	C889.612305,409.669952 888.171631,408.205597 888.135681,401.494110 
	C888.112488,397.162231 888.131287,392.830109 888.131348,387.998505 
z"/>
<path fill="#60B8F9" opacity="1.000000" stroke="none" 
	d="
M1081.689941,313.000000 
	C1081.689697,303.207642 1081.689697,293.915283 1081.689697,283.971497 
	C1085.475464,283.971497 1088.810913,283.581879 1091.981445,284.136017 
	C1093.564209,284.412689 1095.364746,286.160278 1096.122192,287.705536 
	C1096.942627,289.379181 1096.835815,291.591736 1096.837769,293.569550 
	C1096.873047,329.051971 1096.869141,364.534424 1096.859253,400.016876 
	C1096.856934,408.627747 1095.614258,409.865204 1087.127319,409.866058 
	C1063.972046,409.868408 1040.816895,409.866913 1017.661621,409.866913 
	C1016.088562,409.866913 1014.515503,409.866882 1012.942444,409.866882 
	C1012.811340,409.296204 1012.680237,408.725525 1012.549133,408.154816 
	C1020.000671,405.767426 1027.345581,402.943909 1034.927612,401.089996 
	C1047.806519,397.940918 1060.914185,397.755737 1074.049316,399.597229 
	C1079.422119,400.350525 1081.593384,398.273102 1081.656372,391.961029 
	C1081.767578,380.800964 1081.690063,369.639038 1081.690430,358.477875 
	C1081.691040,343.485260 1081.690430,328.492615 1081.689941,313.000000 
z"/>
</svg>